<mxfile host="app.diagrams.net" modified="2021-06-04T07:06:53.658Z" agent="5.0 (Macintosh; Intel Mac OS X 10_15_7) AppleWebKit/537.36 (KHTML, like Gecko) Chrome/90.0.4430.212 Safari/537.36" etag="cmPrer--mc39AWvKaXjG" version="14.7.5" type="github">
  <diagram id="kgpKYQtTHZ0yAKxKKP6v" name="Page-1">
    <mxGraphModel dx="946" dy="621" grid="1" gridSize="10" guides="1" tooltips="1" connect="1" arrows="1" fold="1" page="1" pageScale="1" pageWidth="850" pageHeight="1100" background="#F1FAEE" math="0" shadow="0">
      <root>
        <mxCell id="0" />
        <mxCell id="1" parent="0" />
        <mxCell id="3nuBFxr9cyL0pnOWT2aG-1" value="Android app" style="shape=umlLifeline;perimeter=lifelinePerimeter;container=1;collapsible=0;recursiveResize=0;shadow=0;strokeWidth=1;fillColor=#A8DADC;strokeColor=#457B9D;fontColor=#1D3557;" parent="1" vertex="1">
          <mxGeometry x="120" y="40" width="100" height="1050" as="geometry" />
        </mxCell>
        <mxCell id="lReqyyaEAqxn5t8A6S-g-14" value="create(&lt;span style=&quot;color: rgb(121 , 93 , 163) ; background-color: rgb(245 , 245 , 245) ; font-family: &amp;#34;consolas&amp;#34; , &amp;#34;liberation mono&amp;#34; , &amp;#34;menlo&amp;#34; , &amp;#34;courier&amp;#34; , monospace ; font-size: 0.85em ; text-align: left&quot;&gt;QNRTCSetting&lt;/span&gt;)" style="html=1;verticalAlign=bottom;endArrow=block;strokeColor=#457B9D;fontColor=#1D3557;labelBackgroundColor=#F1FAEE;" edge="1" parent="3nuBFxr9cyL0pnOWT2aG-1" target="3nuBFxr9cyL0pnOWT2aG-5">
          <mxGeometry width="80" relative="1" as="geometry">
            <mxPoint x="50" y="100" as="sourcePoint" />
            <mxPoint x="230" y="97" as="targetPoint" />
          </mxGeometry>
        </mxCell>
        <mxCell id="lReqyyaEAqxn5t8A6S-g-74" value="destroy" style="html=1;verticalAlign=bottom;endArrow=block;strokeColor=#457B9D;fontColor=#1D3557;labelBackgroundColor=#F1FAEE;" edge="1" parent="3nuBFxr9cyL0pnOWT2aG-1" target="3nuBFxr9cyL0pnOWT2aG-5">
          <mxGeometry width="80" relative="1" as="geometry">
            <mxPoint x="50" y="1010" as="sourcePoint" />
            <mxPoint x="130" y="1010" as="targetPoint" />
          </mxGeometry>
        </mxCell>
        <mxCell id="lReqyyaEAqxn5t8A6S-g-76" value="" style="html=1;points=[];perimeter=orthogonalPerimeter;fillColor=#A8DADC;strokeColor=#457B9D;fontColor=#1D3557;" vertex="1" parent="3nuBFxr9cyL0pnOWT2aG-1">
          <mxGeometry x="45" y="310" width="10" height="80" as="geometry" />
        </mxCell>
        <mxCell id="lReqyyaEAqxn5t8A6S-g-85" value="" style="html=1;points=[];perimeter=orthogonalPerimeter;fillColor=#A8DADC;strokeColor=#457B9D;fontColor=#1D3557;" vertex="1" parent="3nuBFxr9cyL0pnOWT2aG-1">
          <mxGeometry x="45" y="440" width="10" height="80" as="geometry" />
        </mxCell>
        <mxCell id="lReqyyaEAqxn5t8A6S-g-95" value="" style="html=1;points=[];perimeter=orthogonalPerimeter;fillColor=#A8DADC;strokeColor=#457B9D;fontColor=#1D3557;" vertex="1" parent="3nuBFxr9cyL0pnOWT2aG-1">
          <mxGeometry x="45" y="710" width="10" height="80" as="geometry" />
        </mxCell>
        <mxCell id="lReqyyaEAqxn5t8A6S-g-102" value="" style="html=1;points=[];perimeter=orthogonalPerimeter;fillColor=#A8DADC;strokeColor=#457B9D;fontColor=#1D3557;" vertex="1" parent="3nuBFxr9cyL0pnOWT2aG-1">
          <mxGeometry x="45" y="870" width="10" height="80" as="geometry" />
        </mxCell>
        <mxCell id="3nuBFxr9cyL0pnOWT2aG-5" value="QNRTC SDK" style="shape=umlLifeline;perimeter=lifelinePerimeter;container=1;collapsible=0;recursiveResize=0;shadow=0;strokeWidth=1;fillColor=#A8DADC;strokeColor=#457B9D;fontColor=#1D3557;" parent="1" vertex="1">
          <mxGeometry x="400" y="40" width="100" height="1060" as="geometry" />
        </mxCell>
        <mxCell id="lReqyyaEAqxn5t8A6S-g-57" value="其他用户加入" style="text;align=center;fontStyle=1;verticalAlign=middle;spacingLeft=3;spacingRight=3;strokeColor=none;rotatable=0;points=[[0,0.5],[1,0.5]];portConstraint=eastwest;fontColor=#1D3557;" vertex="1" parent="3nuBFxr9cyL0pnOWT2aG-5">
          <mxGeometry x="10" y="540" width="80" height="26" as="geometry" />
        </mxCell>
        <mxCell id="lReqyyaEAqxn5t8A6S-g-77" value="" style="html=1;points=[];perimeter=orthogonalPerimeter;fillColor=#A8DADC;strokeColor=#457B9D;fontColor=#1D3557;" vertex="1" parent="3nuBFxr9cyL0pnOWT2aG-5">
          <mxGeometry x="45" y="310" width="10" height="80" as="geometry" />
        </mxCell>
        <mxCell id="lReqyyaEAqxn5t8A6S-g-82" value="" style="html=1;points=[];perimeter=orthogonalPerimeter;fillColor=#A8DADC;strokeColor=#457B9D;fontColor=#1D3557;" vertex="1" parent="3nuBFxr9cyL0pnOWT2aG-5">
          <mxGeometry x="45" y="440" width="10" height="80" as="geometry" />
        </mxCell>
        <mxCell id="lReqyyaEAqxn5t8A6S-g-92" value="" style="html=1;points=[];perimeter=orthogonalPerimeter;fillColor=#A8DADC;strokeColor=#457B9D;fontColor=#1D3557;" vertex="1" parent="3nuBFxr9cyL0pnOWT2aG-5">
          <mxGeometry x="45" y="710" width="10" height="80" as="geometry" />
        </mxCell>
        <mxCell id="lReqyyaEAqxn5t8A6S-g-99" value="" style="html=1;points=[];perimeter=orthogonalPerimeter;fillColor=#A8DADC;strokeColor=#457B9D;fontColor=#1D3557;" vertex="1" parent="3nuBFxr9cyL0pnOWT2aG-5">
          <mxGeometry x="45" y="870" width="10" height="80" as="geometry" />
        </mxCell>
        <mxCell id="lReqyyaEAqxn5t8A6S-g-3" value="RTN" style="shape=umlLifeline;perimeter=lifelinePerimeter;container=1;collapsible=0;recursiveResize=0;shadow=0;strokeWidth=1;fillColor=#A8DADC;strokeColor=#457B9D;fontColor=#1D3557;" vertex="1" parent="1">
          <mxGeometry x="670" y="40" width="100" height="1060" as="geometry" />
        </mxCell>
        <mxCell id="lReqyyaEAqxn5t8A6S-g-75" value="" style="html=1;points=[];perimeter=orthogonalPerimeter;fillColor=#A8DADC;strokeColor=#457B9D;fontColor=#1D3557;" vertex="1" parent="lReqyyaEAqxn5t8A6S-g-3">
          <mxGeometry x="45" y="320" width="10" height="50" as="geometry" />
        </mxCell>
        <mxCell id="lReqyyaEAqxn5t8A6S-g-89" value="" style="html=1;points=[];perimeter=orthogonalPerimeter;fillColor=#A8DADC;strokeColor=#457B9D;fontColor=#1D3557;" vertex="1" parent="lReqyyaEAqxn5t8A6S-g-3">
          <mxGeometry x="45" y="450" width="10" height="50" as="geometry" />
        </mxCell>
        <mxCell id="lReqyyaEAqxn5t8A6S-g-96" value="" style="html=1;points=[];perimeter=orthogonalPerimeter;fillColor=#A8DADC;strokeColor=#457B9D;fontColor=#1D3557;" vertex="1" parent="lReqyyaEAqxn5t8A6S-g-3">
          <mxGeometry x="45" y="720" width="10" height="50" as="geometry" />
        </mxCell>
        <mxCell id="lReqyyaEAqxn5t8A6S-g-104" value="" style="html=1;points=[];perimeter=orthogonalPerimeter;fillColor=#A8DADC;strokeColor=#457B9D;fontColor=#1D3557;" vertex="1" parent="lReqyyaEAqxn5t8A6S-g-3">
          <mxGeometry x="45" y="890" width="10" height="30" as="geometry" />
        </mxCell>
        <mxCell id="lReqyyaEAqxn5t8A6S-g-5" value="" style="line;strokeWidth=1;fillColor=none;align=left;verticalAlign=middle;spacingTop=-1;spacingLeft=3;spacingRight=3;rotatable=0;labelPosition=right;points=[];portConstraint=eastwest;strokeColor=#457B9D;fontColor=#1D3557;labelBackgroundColor=#F1FAEE;" vertex="1" parent="1">
          <mxGeometry x="90" y="190" width="750" height="8" as="geometry" />
        </mxCell>
        <mxCell id="lReqyyaEAqxn5t8A6S-g-6" value="初始化&lt;br&gt;QNRTCEngine" style="whiteSpace=wrap;html=1;fillColor=#A8DADC;strokeColor=#457B9D;fontColor=#1D3557;" vertex="1" parent="1">
          <mxGeometry x="40" y="120" width="100" height="40" as="geometry" />
        </mxCell>
        <mxCell id="lReqyyaEAqxn5t8A6S-g-8" value="创建本地 Track以及预览&lt;br&gt;(也可在加入房间后创建)" style="whiteSpace=wrap;html=1;fillColor=#A8DADC;strokeColor=#457B9D;fontColor=#1D3557;" vertex="1" parent="1">
          <mxGeometry x="40" y="230" width="100" height="80" as="geometry" />
        </mxCell>
        <mxCell id="lReqyyaEAqxn5t8A6S-g-17" value="&lt;div style=&quot;text-align: left&quot;&gt;createTrack&lt;font color=&quot;#795da3&quot; face=&quot;consolas, liberation mono, menlo, courier, monospace&quot; size=&quot;1&quot;&gt;&lt;span style=&quot;background-color: rgb(245 , 245 , 245)&quot;&gt;(&lt;/span&gt;&lt;/font&gt;&lt;span style=&quot;color: rgb(121 , 93 , 163) ; background-color: rgb(245 , 245 , 245) ; font-family: &amp;#34;consolas&amp;#34; , &amp;#34;liberation mono&amp;#34; , &amp;#34;menlo&amp;#34; , &amp;#34;courier&amp;#34; , monospace ; font-size: 0.85em&quot;&gt;QNMicrophoneAudioTrackConfig&lt;/span&gt;)&lt;/div&gt;" style="html=1;verticalAlign=bottom;endArrow=block;strokeColor=#457B9D;fontColor=#1D3557;labelBackgroundColor=#F1FAEE;" edge="1" parent="1" source="3nuBFxr9cyL0pnOWT2aG-1" target="3nuBFxr9cyL0pnOWT2aG-5">
          <mxGeometry width="80" relative="1" as="geometry">
            <mxPoint x="190" y="249" as="sourcePoint" />
            <mxPoint x="410" y="251" as="targetPoint" />
            <Array as="points">
              <mxPoint x="430" y="250" />
            </Array>
          </mxGeometry>
        </mxCell>
        <mxCell id="lReqyyaEAqxn5t8A6S-g-20" value="&lt;span style=&quot;text-align: left&quot;&gt;createTrack&lt;/span&gt;&lt;font color=&quot;#795da3&quot; face=&quot;consolas, liberation mono, menlo, courier, monospace&quot; size=&quot;1&quot; style=&quot;text-align: left&quot;&gt;&lt;span style=&quot;background-color: rgb(245 , 245 , 245)&quot;&gt;(&lt;/span&gt;&lt;/font&gt;&lt;span style=&quot;text-align: left ; color: rgb(121 , 93 , 163) ; background-color: rgb(245 , 245 , 245) ; font-family: &amp;#34;consolas&amp;#34; , &amp;#34;liberation mono&amp;#34; , &amp;#34;menlo&amp;#34; , &amp;#34;courier&amp;#34; , monospace ; font-size: 0.85em&quot;&gt;QNCameraVideoTrackConfig&lt;/span&gt;&lt;span style=&quot;text-align: left&quot;&gt;)&lt;/span&gt;" style="html=1;verticalAlign=bottom;endArrow=block;exitX=0.51;exitY=0.223;exitDx=0;exitDy=0;exitPerimeter=0;strokeColor=#457B9D;fontColor=#1D3557;labelBackgroundColor=#F1FAEE;" edge="1" parent="1" source="3nuBFxr9cyL0pnOWT2aG-1" target="3nuBFxr9cyL0pnOWT2aG-5">
          <mxGeometry width="80" relative="1" as="geometry">
            <mxPoint x="190" y="291" as="sourcePoint" />
            <mxPoint x="250" y="290" as="targetPoint" />
            <Array as="points" />
          </mxGeometry>
        </mxCell>
        <mxCell id="lReqyyaEAqxn5t8A6S-g-22" value="加入房间" style="whiteSpace=wrap;html=1;fillColor=#A8DADC;strokeColor=#457B9D;fontColor=#1D3557;" vertex="1" parent="1">
          <mxGeometry x="40" y="360" width="100" height="60" as="geometry" />
        </mxCell>
        <mxCell id="lReqyyaEAqxn5t8A6S-g-39" value="onRoomStateChanged" style="html=1;verticalAlign=bottom;endArrow=open;dashed=1;endSize=8;exitX=-0.3;exitY=0.988;exitDx=0;exitDy=0;exitPerimeter=0;entryX=1;entryY=1;entryDx=0;entryDy=0;entryPerimeter=0;strokeColor=#457B9D;fontColor=#1D3557;labelBackgroundColor=#F1FAEE;" edge="1" parent="1" source="lReqyyaEAqxn5t8A6S-g-77" target="lReqyyaEAqxn5t8A6S-g-76">
          <mxGeometry relative="1" as="geometry">
            <mxPoint x="440" y="427" as="sourcePoint" />
            <mxPoint x="210" y="427" as="targetPoint" />
          </mxGeometry>
        </mxCell>
        <mxCell id="lReqyyaEAqxn5t8A6S-g-43" value="发布音视频到房间" style="whiteSpace=wrap;html=1;fillColor=#A8DADC;strokeColor=#457B9D;fontColor=#1D3557;" vertex="1" parent="1">
          <mxGeometry x="40" y="480" width="100" height="80" as="geometry" />
        </mxCell>
        <mxCell id="lReqyyaEAqxn5t8A6S-g-50" value="其他用户加入房间" style="html=1;verticalAlign=bottom;endArrow=open;dashed=1;endSize=8;exitX=0.48;exitY=0.553;exitDx=0;exitDy=0;exitPerimeter=0;strokeColor=#457B9D;fontColor=#1D3557;labelBackgroundColor=#F1FAEE;" edge="1" parent="1" source="lReqyyaEAqxn5t8A6S-g-3" target="3nuBFxr9cyL0pnOWT2aG-5">
          <mxGeometry relative="1" as="geometry">
            <mxPoint x="720" y="620" as="sourcePoint" />
            <mxPoint x="440" y="620" as="targetPoint" />
          </mxGeometry>
        </mxCell>
        <mxCell id="lReqyyaEAqxn5t8A6S-g-51" value="订阅其他用户的音视频并观看" style="whiteSpace=wrap;html=1;fillColor=#A8DADC;strokeColor=#457B9D;fontColor=#1D3557;" vertex="1" parent="1">
          <mxGeometry x="40" y="620" width="100" height="260" as="geometry" />
        </mxCell>
        <mxCell id="lReqyyaEAqxn5t8A6S-g-53" value="onRemoteUserJoined(uid)" style="html=1;verticalAlign=bottom;endArrow=open;dashed=1;endSize=8;exitX=0.48;exitY=0.575;exitDx=0;exitDy=0;exitPerimeter=0;strokeColor=#457B9D;fontColor=#1D3557;labelBackgroundColor=#F1FAEE;" edge="1" parent="1" source="3nuBFxr9cyL0pnOWT2aG-5" target="3nuBFxr9cyL0pnOWT2aG-1">
          <mxGeometry relative="1" as="geometry">
            <mxPoint x="450" y="580" as="sourcePoint" />
            <mxPoint x="370" y="580" as="targetPoint" />
          </mxGeometry>
        </mxCell>
        <mxCell id="lReqyyaEAqxn5t8A6S-g-58" value="其他用户发布音视频" style="html=1;verticalAlign=bottom;endArrow=open;dashed=1;endSize=8;exitX=0.5;exitY=0.599;exitDx=0;exitDy=0;exitPerimeter=0;strokeColor=#457B9D;fontColor=#1D3557;labelBackgroundColor=#F1FAEE;" edge="1" parent="1" source="lReqyyaEAqxn5t8A6S-g-3" target="3nuBFxr9cyL0pnOWT2aG-5">
          <mxGeometry relative="1" as="geometry">
            <mxPoint x="720" y="670" as="sourcePoint" />
            <mxPoint x="640" y="670" as="targetPoint" />
          </mxGeometry>
        </mxCell>
        <mxCell id="lReqyyaEAqxn5t8A6S-g-59" value="onRemotePublished(uid, Tracks)" style="html=1;verticalAlign=bottom;endArrow=open;dashed=1;endSize=8;strokeColor=#457B9D;fontColor=#1D3557;labelBackgroundColor=#F1FAEE;" edge="1" parent="1" target="3nuBFxr9cyL0pnOWT2aG-1">
          <mxGeometry relative="1" as="geometry">
            <mxPoint x="447" y="710" as="sourcePoint" />
            <mxPoint x="370" y="700" as="targetPoint" />
          </mxGeometry>
        </mxCell>
        <mxCell id="lReqyyaEAqxn5t8A6S-g-68" value="" style="line;strokeWidth=1;fillColor=none;align=left;verticalAlign=middle;spacingTop=-1;spacingLeft=3;spacingRight=3;rotatable=0;labelPosition=right;points=[];portConstraint=eastwest;strokeColor=#457B9D;fontColor=#1D3557;labelBackgroundColor=#F1FAEE;" vertex="1" parent="1">
          <mxGeometry x="90" y="1000" width="750" height="8" as="geometry" />
        </mxCell>
        <mxCell id="lReqyyaEAqxn5t8A6S-g-67" value="setCapturePreviewWindow" style="html=1;verticalAlign=bottom;endArrow=block;exitX=0.51;exitY=0.245;exitDx=0;exitDy=0;exitPerimeter=0;strokeColor=#457B9D;fontColor=#1D3557;labelBackgroundColor=#F1FAEE;" edge="1" parent="1" source="3nuBFxr9cyL0pnOWT2aG-1" target="3nuBFxr9cyL0pnOWT2aG-5">
          <mxGeometry width="80" relative="1" as="geometry">
            <mxPoint x="170" y="260" as="sourcePoint" />
            <mxPoint x="250" y="260" as="targetPoint" />
          </mxGeometry>
        </mxCell>
        <mxCell id="lReqyyaEAqxn5t8A6S-g-37" value="joinRoom" style="html=1;verticalAlign=bottom;endArrow=block;exitX=1.1;exitY=0.025;exitDx=0;exitDy=0;exitPerimeter=0;strokeColor=#457B9D;fontColor=#1D3557;labelBackgroundColor=#F1FAEE;" edge="1" parent="1" source="lReqyyaEAqxn5t8A6S-g-76">
          <mxGeometry width="80" relative="1" as="geometry">
            <mxPoint x="180" y="371" as="sourcePoint" />
            <mxPoint x="442" y="352" as="targetPoint" />
            <Array as="points" />
          </mxGeometry>
        </mxCell>
        <mxCell id="lReqyyaEAqxn5t8A6S-g-40" value="请求加入房间" style="html=1;verticalAlign=bottom;endArrow=block;exitX=0.9;exitY=0.125;exitDx=0;exitDy=0;exitPerimeter=0;entryX=0;entryY=0.02;entryDx=0;entryDy=0;entryPerimeter=0;strokeColor=#457B9D;fontColor=#1D3557;labelBackgroundColor=#F1FAEE;" edge="1" parent="1" source="lReqyyaEAqxn5t8A6S-g-77" target="lReqyyaEAqxn5t8A6S-g-75">
          <mxGeometry width="80" relative="1" as="geometry">
            <mxPoint x="450" y="340" as="sourcePoint" />
            <mxPoint x="530" y="340" as="targetPoint" />
          </mxGeometry>
        </mxCell>
        <mxCell id="lReqyyaEAqxn5t8A6S-g-65" value="setRenderWindow(trackId, window)" style="html=1;verticalAlign=bottom;endArrow=block;exitX=0.5;exitY=0.78;exitDx=0;exitDy=0;exitPerimeter=0;strokeColor=#457B9D;fontColor=#1D3557;labelBackgroundColor=#F1FAEE;" edge="1" parent="1" source="3nuBFxr9cyL0pnOWT2aG-1" target="3nuBFxr9cyL0pnOWT2aG-5">
          <mxGeometry width="80" relative="1" as="geometry">
            <mxPoint x="170" y="820" as="sourcePoint" />
            <mxPoint x="250" y="820" as="targetPoint" />
          </mxGeometry>
        </mxCell>
        <mxCell id="lReqyyaEAqxn5t8A6S-g-69" value="离开房间" style="whiteSpace=wrap;html=1;fillColor=#A8DADC;strokeColor=#457B9D;fontColor=#1D3557;" vertex="1" parent="1">
          <mxGeometry x="40" y="920" width="100" height="60" as="geometry" />
        </mxCell>
        <mxCell id="lReqyyaEAqxn5t8A6S-g-73" value="初始化&lt;br&gt;QNRTCEngine" style="whiteSpace=wrap;html=1;fillColor=#A8DADC;strokeColor=#457B9D;fontColor=#1D3557;" vertex="1" parent="1">
          <mxGeometry x="40" y="1030" width="100" height="40" as="geometry" />
        </mxCell>
        <mxCell id="lReqyyaEAqxn5t8A6S-g-81" value="return" style="html=1;verticalAlign=bottom;endArrow=open;dashed=1;endSize=8;strokeColor=#457B9D;fontColor=#1D3557;labelBackgroundColor=#F1FAEE;" edge="1" parent="1">
          <mxGeometry relative="1" as="geometry">
            <mxPoint x="710" y="410" as="sourcePoint" />
            <mxPoint x="450" y="410" as="targetPoint" />
          </mxGeometry>
        </mxCell>
        <mxCell id="lReqyyaEAqxn5t8A6S-g-83" value="publish(Tracks)" style="html=1;verticalAlign=bottom;endArrow=block;entryX=0;entryY=0;exitX=1.3;exitY=0;exitDx=0;exitDy=0;exitPerimeter=0;strokeColor=#457B9D;fontColor=#1D3557;labelBackgroundColor=#F1FAEE;" edge="1" target="lReqyyaEAqxn5t8A6S-g-82" parent="1" source="lReqyyaEAqxn5t8A6S-g-85">
          <mxGeometry relative="1" as="geometry">
            <mxPoint x="375" y="480" as="sourcePoint" />
          </mxGeometry>
        </mxCell>
        <mxCell id="lReqyyaEAqxn5t8A6S-g-84" value="onLocalPublished(Tracks)" style="html=1;verticalAlign=bottom;endArrow=open;dashed=1;endSize=8;exitX=0;exitY=0.95;entryX=1.1;entryY=0.963;entryDx=0;entryDy=0;entryPerimeter=0;strokeColor=#457B9D;fontColor=#1D3557;labelBackgroundColor=#F1FAEE;" edge="1" source="lReqyyaEAqxn5t8A6S-g-82" parent="1" target="lReqyyaEAqxn5t8A6S-g-85">
          <mxGeometry relative="1" as="geometry">
            <mxPoint x="171" y="550" as="targetPoint" />
          </mxGeometry>
        </mxCell>
        <mxCell id="lReqyyaEAqxn5t8A6S-g-90" value="请求发布音视频" style="html=1;verticalAlign=bottom;endArrow=block;entryX=0;entryY=0;exitX=0.9;exitY=0.125;exitDx=0;exitDy=0;exitPerimeter=0;strokeColor=#457B9D;fontColor=#1D3557;labelBackgroundColor=#F1FAEE;" edge="1" target="lReqyyaEAqxn5t8A6S-g-89" parent="1" source="lReqyyaEAqxn5t8A6S-g-82">
          <mxGeometry relative="1" as="geometry">
            <mxPoint x="645" y="490" as="sourcePoint" />
          </mxGeometry>
        </mxCell>
        <mxCell id="lReqyyaEAqxn5t8A6S-g-91" value="return" style="html=1;verticalAlign=bottom;endArrow=open;dashed=1;endSize=8;entryX=1;entryY=0.75;entryDx=0;entryDy=0;entryPerimeter=0;strokeColor=#457B9D;fontColor=#1D3557;labelBackgroundColor=#F1FAEE;" edge="1" source="lReqyyaEAqxn5t8A6S-g-89" parent="1" target="lReqyyaEAqxn5t8A6S-g-82">
          <mxGeometry relative="1" as="geometry">
            <mxPoint x="460" y="540" as="targetPoint" />
          </mxGeometry>
        </mxCell>
        <mxCell id="lReqyyaEAqxn5t8A6S-g-93" value="subscribe(uid, Tracks)" style="html=1;verticalAlign=bottom;endArrow=block;entryX=0;entryY=0;strokeColor=#457B9D;fontColor=#1D3557;labelBackgroundColor=#F1FAEE;" edge="1" target="lReqyyaEAqxn5t8A6S-g-92" parent="1">
          <mxGeometry relative="1" as="geometry">
            <mxPoint x="174" y="750" as="sourcePoint" />
          </mxGeometry>
        </mxCell>
        <mxCell id="lReqyyaEAqxn5t8A6S-g-94" value="onSubscribed(uid, Tracks)" style="html=1;verticalAlign=bottom;endArrow=open;dashed=1;endSize=8;exitX=0;exitY=0.95;entryX=1;entryY=0.988;entryDx=0;entryDy=0;entryPerimeter=0;strokeColor=#457B9D;fontColor=#1D3557;labelBackgroundColor=#F1FAEE;" edge="1" source="lReqyyaEAqxn5t8A6S-g-92" parent="1" target="lReqyyaEAqxn5t8A6S-g-95">
          <mxGeometry relative="1" as="geometry">
            <mxPoint x="375" y="816" as="targetPoint" />
          </mxGeometry>
        </mxCell>
        <mxCell id="lReqyyaEAqxn5t8A6S-g-97" value="订阅 Track 请求" style="html=1;verticalAlign=bottom;endArrow=block;entryX=0;entryY=0;strokeColor=#457B9D;fontColor=#1D3557;labelBackgroundColor=#F1FAEE;" edge="1" target="lReqyyaEAqxn5t8A6S-g-96" parent="1">
          <mxGeometry relative="1" as="geometry">
            <mxPoint x="456" y="760" as="sourcePoint" />
          </mxGeometry>
        </mxCell>
        <mxCell id="lReqyyaEAqxn5t8A6S-g-98" value="return" style="html=1;verticalAlign=bottom;endArrow=open;dashed=1;endSize=8;entryX=1.2;entryY=0.75;entryDx=0;entryDy=0;entryPerimeter=0;strokeColor=#457B9D;fontColor=#1D3557;labelBackgroundColor=#F1FAEE;" edge="1" source="lReqyyaEAqxn5t8A6S-g-96" parent="1" target="lReqyyaEAqxn5t8A6S-g-92">
          <mxGeometry relative="1" as="geometry">
            <mxPoint x="645" y="836" as="targetPoint" />
          </mxGeometry>
        </mxCell>
        <mxCell id="lReqyyaEAqxn5t8A6S-g-100" value="leaveRoom" style="html=1;verticalAlign=bottom;endArrow=block;entryX=0;entryY=0;strokeColor=#457B9D;fontColor=#1D3557;labelBackgroundColor=#F1FAEE;" edge="1" target="lReqyyaEAqxn5t8A6S-g-99" parent="1" source="lReqyyaEAqxn5t8A6S-g-102">
          <mxGeometry relative="1" as="geometry">
            <mxPoint x="375" y="910" as="sourcePoint" />
          </mxGeometry>
        </mxCell>
        <mxCell id="lReqyyaEAqxn5t8A6S-g-101" value="onRoomStateChanged" style="html=1;verticalAlign=bottom;endArrow=open;dashed=1;endSize=8;exitX=0;exitY=0.95;strokeColor=#457B9D;fontColor=#1D3557;labelBackgroundColor=#F1FAEE;" edge="1" source="lReqyyaEAqxn5t8A6S-g-99" parent="1">
          <mxGeometry relative="1" as="geometry">
            <mxPoint x="175" y="985" as="targetPoint" />
          </mxGeometry>
        </mxCell>
        <mxCell id="lReqyyaEAqxn5t8A6S-g-105" value="离开房间请求" style="html=1;verticalAlign=bottom;endArrow=block;entryX=0;entryY=0;exitX=0.9;exitY=0.263;exitDx=0;exitDy=0;exitPerimeter=0;strokeColor=#457B9D;fontColor=#1D3557;labelBackgroundColor=#F1FAEE;" edge="1" target="lReqyyaEAqxn5t8A6S-g-104" parent="1" source="lReqyyaEAqxn5t8A6S-g-99">
          <mxGeometry relative="1" as="geometry">
            <mxPoint x="645" y="940" as="sourcePoint" />
          </mxGeometry>
        </mxCell>
        <mxCell id="lReqyyaEAqxn5t8A6S-g-106" value="return" style="html=1;verticalAlign=bottom;endArrow=open;dashed=1;endSize=8;exitX=0;exitY=0.95;entryX=0.9;entryY=0.6;entryDx=0;entryDy=0;entryPerimeter=0;strokeColor=#457B9D;fontColor=#1D3557;labelBackgroundColor=#F1FAEE;" edge="1" source="lReqyyaEAqxn5t8A6S-g-104" parent="1" target="lReqyyaEAqxn5t8A6S-g-99">
          <mxGeometry relative="1" as="geometry">
            <mxPoint x="460" y="959" as="targetPoint" />
          </mxGeometry>
        </mxCell>
      </root>
    </mxGraphModel>
  </diagram>
</mxfile>
